<svg id="abb0e153-763c-4cd0-adb0-42df89e1a7e7" data-name="Layer 1" xmlns="http://www.w3.org/2000/svg" viewBox="0 0 216.72 216.72"><path d="M79.1,72.33h64.43a16.3,16.3,0,0,1,16.3,16.3v55.76a16.3,16.3,0,0,1-16.3,16.3H87.77a16.3,16.3,0,0,1-16.3-16.3V80A7.62,7.62,0,0,1,79.1,72.33Z" style="fill:#ed8b85"/><rect x="64.18" y="64.18" width="88.35" height="88.35" rx="16.3" style="fill:none;stroke:#3f3e40;stroke-linecap:round;stroke-linejoin:round;stroke-width:6px"/><circle cx="108.36" cy="108.36" r="21.02" style="fill:none;stroke:#3f3e40;stroke-linecap:round;stroke-linejoin:round;stroke-width:6px"/><circle cx="135.81" cy="80.91" r="3.43" style="fill:#3f3e40"/><line x1="108.09" y1="2.5" x2="108.09" y2="23.98" style="fill:none;stroke:#3f3e40;stroke-linecap:round;stroke-linejoin:round;stroke-width:5px"/><line x1="183.02" y1="33.31" x2="167.83" y2="48.5" style="fill:none;stroke:#3f3e40;stroke-linecap:round;stroke-linejoin:round;stroke-width:5px"/><line x1="214.22" y1="108.09" x2="192.74" y2="108.09" style="fill:none;stroke:#3f3e40;stroke-linecap:round;stroke-linejoin:round;stroke-width:5px"/><line x1="183.41" y1="183.02" x2="168.22" y2="167.83" style="fill:none;stroke:#3f3e40;stroke-linecap:round;stroke-linejoin:round;stroke-width:5px"/><line x1="108.63" y1="214.22" x2="108.63" y2="192.74" style="fill:none;stroke:#3f3e40;stroke-linecap:round;stroke-linejoin:round;stroke-width:5px"/><line x1="33.7" y1="183.41" x2="48.89" y2="168.22" style="fill:none;stroke:#3f3e40;stroke-linecap:round;stroke-linejoin:round;stroke-width:5px"/><line x1="2.5" y1="108.63" x2="23.98" y2="108.63" style="fill:none;stroke:#3f3e40;stroke-linecap:round;stroke-linejoin:round;stroke-width:5px"/><line x1="33.31" y1="33.7" x2="48.5" y2="48.89" style="fill:none;stroke:#3f3e40;stroke-linecap:round;stroke-linejoin:round;stroke-width:5px"/></svg>