<svg id="a175fb96-2740-45c7-9e8d-ac9f56741f24" data-name="Layer 1" xmlns="http://www.w3.org/2000/svg" viewBox="0 0 222.97 284.7"><ellipse cx="123.53" cy="139.44" rx="81.57" ry="77.8" style="fill:#ffe2a7"/><path d="M78.1,197.82h0s13.57,10.41,21,37.51h62.07c7.42-27.1,21-37.51,21-37.51h0a78.87,78.87,0,1,0-104,0Z" transform="translate(-18.63 -11.21)" style="fill:none;stroke:#3f3e40;stroke-linecap:round;stroke-linejoin:round;stroke-width:8.92223137949247px"/><rect x="80.22" y="224.13" width="62.53" height="38.64" style="fill:none;stroke:#3f3e40;stroke-linecap:round;stroke-linejoin:round;stroke-width:8.92223137949247px"/><path d="M112.64,274a17.47,17.47,0,0,0,34.94,0Z" transform="translate(-18.63 -11.21)" style="fill:none;stroke:#3f3e40;stroke-linecap:round;stroke-linejoin:round;stroke-width:8.92223137949247px"/><line x1="80.22" y1="243.45" x2="142.75" y2="243.45" style="fill:none;stroke:#3f3e40;stroke-linecap:round;stroke-linejoin:round;stroke-width:8.92223137949247px"/><path d="M147.58,235.33s.25-62.32,25.28-81.92H87.36c25,19.6,25.28,81.92,25.28,81.92" transform="translate(-18.63 -11.21)" style="fill:none;stroke:#3f3e40;stroke-linecap:round;stroke-linejoin:round;stroke-width:8.92223137949247px"/><line x1="111.48" y1="4.46" x2="111.48" y2="25.94" style="fill:none;stroke:#3f3e40;stroke-linecap:round;stroke-linejoin:round;stroke-width:8.92223137949247px"/><line x1="49.69" y1="21.02" x2="60.43" y2="39.62" style="fill:none;stroke:#3f3e40;stroke-linecap:round;stroke-linejoin:round;stroke-width:8.92223137949247px"/><line x1="4.46" y1="66.25" x2="23.06" y2="76.99" style="fill:none;stroke:#3f3e40;stroke-linecap:round;stroke-linejoin:round;stroke-width:8.92223137949247px"/><line x1="218.51" y1="66.25" x2="199.9" y2="76.99" style="fill:none;stroke:#3f3e40;stroke-linecap:round;stroke-linejoin:round;stroke-width:8.92223137949247px"/><line x1="173.27" y1="21.02" x2="162.53" y2="39.62" style="fill:none;stroke:#3f3e40;stroke-linecap:round;stroke-linejoin:round;stroke-width:8.92223137949247px"/></svg>