<svg id="b55b18bc-2d7c-4d5a-ae92-8fbfa9ead8ff" data-name="Layer 1" xmlns="http://www.w3.org/2000/svg" viewBox="0 0 432 253"><path d="M256.56,51.72S132.9,32.18,152.41,155C276.28,174.29,256.56,51.72,256.56,51.72Z" style="fill:#98c496"/><path d="M41.13,32.93S164.79,13.39,145.28,136.16C21.41,155.5,41.13,32.93,41.13,32.93Z" style="fill:#98c496"/><path d="M249.07,42.44S124,22.49,143.69,147.82C269,167.56,249.07,42.44,249.07,42.44Z" style="fill:none;stroke:#3f3e40;stroke-linecap:round;stroke-linejoin:round;stroke-width:7.282070020526648px"/><line x1="216.37" y1="75.13" x2="143.69" y2="147.82" style="fill:none;stroke:#3f3e40;stroke-linecap:round;stroke-linejoin:round;stroke-width:7.282070020526648px"/><path d="M34.09,42.44S159.2,22.49,139.47,147.82C14.14,167.56,34.09,42.44,34.09,42.44Z" style="fill:none;stroke:#3f3e40;stroke-linecap:round;stroke-linejoin:round;stroke-width:7.282070020526648px"/><line x1="71.01" y1="79.36" x2="139.47" y2="147.82" style="fill:none;stroke:#3f3e40;stroke-linecap:round;stroke-linejoin:round;stroke-width:7.282070020526648px"/><path d="M144.45,145.58H138.7C136.94,202.48,129,220,129,220h25.13S146.22,202.48,144.45,145.58Z" style="fill:none;stroke:#3f3e40;stroke-linecap:round;stroke-linejoin:round;stroke-width:7.282070020526648px"/><path d="M257.14,189.82l-13.53-43.48a6.75,6.75,0,0,1,9.48-8l35.41,17.83a6.75,6.75,0,0,1,2.1,10.42l-21.87,25.64A6.75,6.75,0,0,1,257.14,189.82Z" style="fill:#91d3bf"/><path d="M383.35,115.66H339.09c-12.65,0-22.89,4.53-22.89,17.17h0c0,4,0,9.66,7.09,13.39.71.37,1.51.53,2.25.85L348,156.92,366,189.48c1.39,4.45,11.05,11.05,14.31,7.85a92.33,92.33,0,0,0,25.84-57.16S403.69,115.66,383.35,115.66Z" style="fill:#91d3bf"/><path d="M399.58,97.88a93,93,0,0,0-34.82-42.41h-.87a38.68,38.68,0,0,0-38.68,38.68h0a10.16,10.16,0,0,0,10.15,10.15h54.78A10.15,10.15,0,0,0,399.58,97.88Z" style="fill:#91d3bf"/><path d="M292.92,42.5a16.05,16.05,0,0,0-2.14,8v5.64a16.25,16.25,0,0,0,9.91,15s6.18-14,22.55-15V50.53a16.23,16.23,0,0,0-3.6-10.19c-2-.12-3.93-.19-5.92-.19A92.55,92.55,0,0,0,292.92,42.5Z" style="fill:#91d3bf"/><path d="M221,132.83c0,1.74.05,3.47.15,5.18l32.69-15a27,27,0,0,0,14.94-18.06L278.42,66a27,27,0,0,0-1.86-18.12A92.7,92.7,0,0,0,221,132.83Z" style="fill:#91d3bf"/><circle cx="307.1" cy="127.54" r="92.68" transform="matrix(1, -0.04, 0.04, 1, -4.57, 11.62)" style="fill:none;stroke:#3f3e40;stroke-linecap:round;stroke-linejoin:round;stroke-width:7.282070020526648px"/><path d="M250.52,184.52,237,141.05a6.75,6.75,0,0,1,9.48-8l35.41,17.83a6.74,6.74,0,0,1,2.1,10.41L262.11,186.9A6.76,6.76,0,0,1,250.52,184.52Z" style="fill:none;stroke:#3f3e40;stroke-linecap:round;stroke-linejoin:round;stroke-width:7.282070020526648px"/><path d="M376.73,110.36H332.47c-12.65,0-22.89,4.53-22.89,17.18h0c0,4,0,9.65,7.09,13.38.71.38,1.51.54,2.25.86l22.49,9.84,17.93,32.56c1.39,4.46,11.05,11,14.31,7.86a92.36,92.36,0,0,0,25.84-57.17S397.07,110.36,376.73,110.36Z" style="fill:none;stroke:#3f3e40;stroke-linecap:round;stroke-linejoin:round;stroke-width:7.282070020526648px"/><path d="M393,92.58a93,93,0,0,0-34.82-42.41h-.87a38.68,38.68,0,0,0-38.68,38.68h0A10.15,10.15,0,0,0,328.74,99h54.78A10.15,10.15,0,0,0,393,92.58Z" style="fill:none;stroke:#3f3e40;stroke-linecap:round;stroke-linejoin:round;stroke-width:7.282070020526648px"/><path d="M286.3,37.2a16.08,16.08,0,0,0-2.14,8v5.65a16.23,16.23,0,0,0,9.91,14.95s6.18-14,22.55-14.95V45.23A16.18,16.18,0,0,0,313,35.05c-2-.12-3.93-.19-5.92-.19A93.13,93.13,0,0,0,286.3,37.2Z" style="fill:none;stroke:#3f3e40;stroke-linecap:round;stroke-linejoin:round;stroke-width:7.282070020526648px"/><path d="M214.42,127.54c0,1.73.05,3.46.15,5.17l32.69-15A27,27,0,0,0,262.2,99.61l9.6-38.88a27,27,0,0,0-1.86-18.12A92.71,92.71,0,0,0,214.42,127.54Z" style="fill:none;stroke:#3f3e40;stroke-linecap:round;stroke-linejoin:round;stroke-width:7.282070020526648px"/></svg>